<svg width="14" height="14" viewBox="0 0 14 14" fill="none" xmlns="http://www.w3.org/2000/svg">
<rect width="14" height="14" rx="2" fill="#394B59"/>
<path d="M6.9992 4.028C6.6392 4.028 6.3752 3.948 6.2072 3.788C6.0472 3.62 5.9672 3.408 5.9672 3.152V2.888C5.9672 2.632 6.0472 2.424 6.2072 2.264C6.3752 2.096 6.6392 2.012 6.9992 2.012C7.3592 2.012 7.6192 2.096 7.7792 2.264C7.9472 2.424 8.0312 2.632 8.0312 2.888V3.152C8.0312 3.408 7.9472 3.62 7.7792 3.788C7.6192 3.948 7.3592 4.028 6.9992 4.028ZM6.1112 4.7H7.8872V11H6.1112V4.7Z" fill="white"/>
</svg>
