<svg width="14" height="14" viewBox="0 0 14 14" fill="none" xmlns="http://www.w3.org/2000/svg">
<path d="M7.0001 12.25C10.1501 12.25 12.6001 9.5375 13.6501 7.9625C14.0876 7.35 14.0876 6.5625 13.6501 5.95C12.6001 4.4625 10.1501 1.75 7.0001 1.75C3.8501 1.75 1.4001 4.4625 0.350098 6.0375C-0.0874024 6.65 -0.0874024 7.4375 0.350098 7.9625C1.4001 9.5375 3.8501 12.25 7.0001 12.25ZM7.0001 4.375C8.4876 4.375 9.6251 5.5125 9.6251 7C9.6251 8.4875 8.4876 9.625 7.0001 9.625C5.5126 9.625 4.3751 8.4875 4.3751 7C4.3751 5.5125 5.5126 4.375 7.0001 4.375Z" fill="#BFCCD6"/>
</svg>
