<svg width="28" height="12" viewBox="0 0 28 12" fill="none" xmlns="http://www.w3.org/2000/svg">
<path d="M2.25 3.75L6 8.25L9.75 3.75L2.25 3.75Z" fill="#394B59"/>
<g clip-path="url(#clip0)">
<path d="M27.8501 5.55C27.7001 5.4 27.4751 5.25 27.2501 5.25H19.0001C18.7001 5.25 18.4001 5.4 18.3251 5.7L16.0751 10.95C15.9251 11.4 16.0751 12 16.7501 12H25.0001C25.3001 12 25.6001 11.85 25.6751 11.55L27.9251 6.3C28.0751 6.075 28.0001 5.775 27.8501 5.55Z" fill="#BFCCD6"/>
<path d="M16.9 5.1C17.275 4.275 18.1 3.75 19 3.75H25.75V2.25C25.75 1.8 25.45 1.5 25 1.5H20.8L19.525 0.225C19.375 0.075 19.225 0 19 0H16.75C16.3 0 16 0.3 16 0.75V7.275L16.9 5.1Z" fill="#BFCCD6"/>
</g>
<defs>
<clipPath id="clip0">
<rect width="12" height="12" fill="white" transform="translate(16)"/>
</clipPath>
</defs>
</svg>
